<svg xmlns="http://www.w3.org/2000/svg" xmlns:xlink="http://www.w3.org/1999/xlink" width="500" zoomAndPan="magnify" viewBox="0 0 375 149.999998" height="200" preserveAspectRatio="xMidYMid meet" version="1.2"><defs><clipPath id="efddbf1d6f"><path d="M 51.339844 15.574219 L 143.265625 15.574219 L 143.265625 109.777344 L 51.339844 109.777344 Z M 51.339844 15.574219 "/></clipPath></defs><g id="61bba0cc76"><g clip-rule="nonzero" clip-path="url(#efddbf1d6f)"><path style=" stroke:none;fill-rule:nonzero;fill:#15b0f8;fill-opacity:1;" d="M 97.300781 15.582031 C 71.925781 15.582031 51.351562 36.15625 51.351562 61.53125 L 51.351562 101.132812 C 51.351562 105.628906 54.996094 109.273438 59.492188 109.273438 C 78.304688 109.273438 93.550781 94.027344 93.550781 75.214844 L 93.550781 73.101562 L 89.996094 74.628906 C 88.597656 75.234375 87.039062 74.207031 87.039062 72.683594 L 87.039062 72.132812 C 87.039062 70.183594 92.625 66.679688 92.625 64.988281 L 92.625 52.519531 C 92.625 52.519531 72.75 60.832031 70.671875 60.054688 C 68.59375 59.273438 67.816406 55.375 71.710938 53.039062 C 75.609375 50.699219 92.625 38.230469 92.625 38.230469 C 91.71875 22.382812 97.304688 22.902344 97.304688 22.902344 C 97.304688 22.902344 102.890625 22.382812 101.980469 38.230469 C 101.980469 38.230469 118.996094 50.699219 122.894531 53.039062 C 126.789062 55.375 126.011719 59.273438 123.933594 60.054688 C 121.855469 60.832031 101.980469 52.519531 101.980469 52.519531 L 101.980469 64.988281 C 101.980469 66.679688 107.566406 70.183594 107.566406 72.132812 L 107.566406 72.683594 C 107.566406 74.207031 106.007812 75.230469 104.609375 74.628906 L 101.054688 73.101562 L 101.054688 75.214844 C 101.054688 94.027344 116.300781 109.273438 135.113281 109.273438 C 139.609375 109.273438 143.253906 105.628906 143.253906 101.132812 L 143.253906 61.53125 C 143.253906 36.15625 122.679688 15.582031 97.304688 15.582031 Z M 97.300781 15.582031 "/></g><path style="fill:none;stroke-width:5;stroke-linecap:round;stroke-linejoin:miter;stroke:#15b0f8;stroke-opacity:1;stroke-miterlimit:4;" d="M 2.501731 2.500398 L 115.039801 2.500398 " transform="matrix(0,-0.759708,0.759708,0,166.909021,107.240429)"/><g style="fill:#004aad;fill-opacity:1;"><g transform="translate(189.690182, 58.573823)"><path style="stroke:none" d="M 17.484375 0.59375 C 15.523438 0.59375 13.625 0.347656 11.78125 -0.140625 C 9.9375 -0.628906 8.269531 -1.378906 6.78125 -2.390625 C 5.289062 -3.410156 4.085938 -4.734375 3.171875 -6.359375 C 2.253906 -7.984375 1.734375 -9.9375 1.609375 -12.21875 C 1.609375 -13.007812 2.007812 -13.40625 2.8125 -13.40625 L 9.8125 -13.40625 C 10.550781 -13.40625 10.953125 -13.023438 11.015625 -12.265625 C 11.296875 -10.410156 12.109375 -9.019531 13.453125 -8.09375 C 14.796875 -7.164062 16.4375 -6.703125 18.375 -6.703125 C 19.375 -6.703125 20.316406 -6.835938 21.203125 -7.109375 C 22.085938 -7.378906 22.804688 -7.835938 23.359375 -8.484375 C 23.910156 -9.128906 24.1875 -10.015625 24.1875 -11.140625 C 24.1875 -12.109375 23.972656 -12.910156 23.546875 -13.546875 C 23.128906 -14.191406 22.550781 -14.71875 21.8125 -15.125 C 21.082031 -15.539062 20.234375 -15.878906 19.265625 -16.140625 C 18.296875 -16.410156 17.265625 -16.664062 16.171875 -16.90625 C 15.085938 -17.144531 13.988281 -17.414062 12.875 -17.71875 C 11.65625 -18.0625 10.457031 -18.46875 9.28125 -18.9375 C 8.101562 -19.414062 7.03125 -20.0625 6.0625 -20.875 C 5.09375 -21.6875 4.316406 -22.710938 3.734375 -23.953125 C 3.160156 -25.203125 2.875 -26.753906 2.875 -28.609375 C 2.875 -30.828125 3.28125 -32.734375 4.09375 -34.328125 C 4.914062 -35.921875 6.019531 -37.238281 7.40625 -38.28125 C 8.789062 -39.320312 10.34375 -40.082031 12.0625 -40.5625 C 13.78125 -41.050781 15.523438 -41.296875 17.296875 -41.296875 C 19.015625 -41.296875 20.707031 -41.070312 22.375 -40.625 C 24.039062 -40.175781 25.566406 -39.484375 26.953125 -38.546875 C 28.335938 -37.609375 29.476562 -36.394531 30.375 -34.90625 C 31.269531 -33.425781 31.800781 -31.648438 31.96875 -29.578125 C 32.019531 -28.734375 31.640625 -28.3125 30.828125 -28.3125 L 24.359375 -28.3125 C 23.640625 -28.3125 23.222656 -28.691406 23.109375 -29.453125 C 22.785156 -31.128906 22.078125 -32.304688 20.984375 -32.984375 C 19.898438 -33.660156 18.613281 -34 17.125 -34 C 15.539062 -34 14.265625 -33.65625 13.296875 -32.96875 C 12.335938 -32.28125 11.859375 -31.25 11.859375 -29.875 C 11.859375 -28.894531 12.097656 -28.109375 12.578125 -27.515625 C 13.066406 -26.929688 13.722656 -26.457031 14.546875 -26.09375 C 15.378906 -25.738281 16.332031 -25.445312 17.40625 -25.21875 C 18.488281 -24.988281 19.609375 -24.742188 20.765625 -24.484375 C 21.941406 -24.222656 23.125 -23.910156 24.3125 -23.546875 C 25.5 -23.191406 26.617188 -22.738281 27.671875 -22.1875 C 28.734375 -21.644531 29.675781 -20.941406 30.5 -20.078125 C 31.332031 -19.222656 31.984375 -18.175781 32.453125 -16.9375 C 32.921875 -15.695312 33.15625 -14.203125 33.15625 -12.453125 C 33.15625 -10.453125 32.847656 -8.71875 32.234375 -7.25 C 31.617188 -5.789062 30.773438 -4.554688 29.703125 -3.546875 C 28.640625 -2.535156 27.425781 -1.722656 26.0625 -1.109375 C 24.707031 -0.503906 23.289062 -0.0703125 21.8125 0.1875 C 20.34375 0.457031 18.898438 0.59375 17.484375 0.59375 Z M 17.484375 0.59375 "/></g></g><g style="fill:#004aad;fill-opacity:1;"><g transform="translate(220.221739, 58.573823)"><path style="stroke:none" d="M 14.71875 -26.390625 L 18.609375 -26.390625 C 19.410156 -26.390625 19.8125 -25.992188 19.8125 -25.203125 L 19.8125 -20.65625 C 19.8125 -19.851562 19.410156 -19.453125 18.609375 -19.453125 L 14.71875 -19.453125 L 14.71875 -1.203125 C 14.71875 -0.398438 14.320312 0 13.53125 0 L 6.9375 0 C 6.144531 0 5.75 -0.398438 5.75 -1.203125 L 5.75 -19.453125 L 1.921875 -19.453125 C 1.117188 -19.453125 0.71875 -19.851562 0.71875 -20.65625 L 0.71875 -25.203125 C 0.71875 -25.992188 1.117188 -26.390625 1.921875 -26.390625 L 5.75 -26.390625 C 5.75 -29.484375 6.519531 -32.003906 8.0625 -33.953125 C 9.613281 -35.898438 11.832031 -37.171875 14.71875 -37.765625 Z M 14.71875 -26.390625 "/></g></g><g style="fill:#004aad;fill-opacity:1;"><g transform="translate(236.265703, 58.573823)"><path style="stroke:none" d="M 25.46875 -22.125 C 26.925781 -25.007812 29.410156 -26.632812 32.921875 -27 L 32.921875 0.59375 C 29.410156 0.238281 26.925781 -1.394531 25.46875 -4.3125 C 24.3125 -2.675781 22.820312 -1.390625 21 -0.453125 C 19.1875 0.484375 17.15625 0.953125 14.90625 0.953125 C 12.96875 0.953125 11.191406 0.609375 9.578125 -0.078125 C 7.960938 -0.765625 6.570312 -1.734375 5.40625 -2.984375 C 4.238281 -4.242188 3.332031 -5.742188 2.6875 -7.484375 C 2.050781 -9.222656 1.734375 -11.140625 1.734375 -13.234375 C 1.734375 -15.304688 2.050781 -17.203125 2.6875 -18.921875 C 3.332031 -20.648438 4.238281 -22.144531 5.40625 -23.40625 C 6.570312 -24.664062 7.960938 -25.640625 9.578125 -26.328125 C 11.191406 -27.015625 12.96875 -27.359375 14.90625 -27.359375 C 17.15625 -27.359375 19.1875 -26.894531 21 -25.96875 C 22.820312 -25.039062 24.3125 -23.757812 25.46875 -22.125 Z M 17.65625 -6.21875 C 18.875 -6.21875 19.957031 -6.507812 20.90625 -7.09375 C 21.851562 -7.6875 22.59375 -8.507812 23.125 -9.5625 C 23.664062 -10.613281 23.9375 -11.816406 23.9375 -13.171875 C 23.9375 -14.523438 23.664062 -15.722656 23.125 -16.765625 C 22.59375 -17.816406 21.851562 -18.632812 20.90625 -19.21875 C 19.957031 -19.8125 18.875 -20.109375 17.65625 -20.109375 C 16.4375 -20.109375 15.351562 -19.8125 14.40625 -19.21875 C 13.457031 -18.632812 12.710938 -17.816406 12.171875 -16.765625 C 11.640625 -15.722656 11.375 -14.523438 11.375 -13.171875 C 11.375 -11.816406 11.640625 -10.613281 12.171875 -9.5625 C 12.710938 -8.507812 13.457031 -7.6875 14.40625 -7.09375 C 15.351562 -6.507812 16.4375 -6.21875 17.65625 -6.21875 Z M 17.65625 -6.21875 "/></g></g><g style="fill:#004aad;fill-opacity:1;"><g transform="translate(267.635375, 58.573823)"><path style="stroke:none" d="M 5.8125 14.96875 L 11.015625 1.921875 L 0.78125 -25.015625 C 0.632812 -25.441406 0.644531 -25.773438 0.8125 -26.015625 C 0.988281 -26.265625 1.296875 -26.390625 1.734375 -26.390625 L 8.328125 -26.390625 C 9.003906 -26.390625 9.460938 -26.070312 9.703125 -25.4375 L 15.5625 -7.546875 L 18.796875 -17.296875 C 19.910156 -20.628906 21.492188 -23.078125 23.546875 -24.640625 C 25.609375 -26.210938 28.175781 -27 31.25 -27 L 18.734375 5.5 C 17.472656 8.738281 15.804688 11.125 13.734375 12.65625 C 11.660156 14.195312 9.019531 14.96875 5.8125 14.96875 Z M 5.8125 14.96875 "/></g></g><g style="fill:#15b0f8;fill-opacity:1;"><g transform="translate(189.690182, 110.724304)"><path style="stroke:none" d="M 42.796875 -39.6875 L 51.953125 -1.3125 C 52.054688 -0.9375 52.007812 -0.625 51.8125 -0.375 C 51.613281 -0.125 51.300781 0 50.875 0 L 44.0625 0 C 43.300781 0 42.859375 -0.359375 42.734375 -1.078125 L 37.65625 -25.53125 L 33.15625 -11.140625 C 32.476562 -8.960938 31.789062 -7.144531 31.09375 -5.6875 C 30.394531 -4.226562 29.664062 -3.039062 28.90625 -2.125 C 28.15625 -1.207031 27.34375 -0.492188 26.46875 0.015625 C 25.601562 0.523438 24.660156 0.921875 23.640625 1.203125 L 15.203125 -25.5625 L 12.328125 -11.796875 C 11.734375 -8.859375 10.847656 -6.429688 9.671875 -4.515625 C 8.492188 -2.597656 7.101562 -1.164062 5.5 -0.21875 C 3.90625 0.726562 2.171875 1.203125 0.296875 1.203125 L 10.0625 -39.6875 C 10.238281 -40.363281 10.675781 -40.703125 11.375 -40.703125 L 17.53125 -40.703125 C 18.238281 -40.703125 18.679688 -40.363281 18.859375 -39.6875 L 26.375 -15.265625 L 34 -39.6875 C 34.175781 -40.363281 34.613281 -40.703125 35.3125 -40.703125 L 41.484375 -40.703125 C 42.179688 -40.703125 42.617188 -40.363281 42.796875 -39.6875 Z M 42.796875 -39.6875 "/></g></g><g style="fill:#15b0f8;fill-opacity:1;"><g transform="translate(237.942081, 110.724304)"><path style="stroke:none" d="M 6.9375 -31.609375 C 5.84375 -31.609375 4.789062 -31.785156 3.78125 -32.140625 C 2.78125 -32.503906 1.957031 -33.046875 1.3125 -33.765625 C 0.675781 -34.484375 0.359375 -35.378906 0.359375 -36.453125 C 0.359375 -37.515625 0.675781 -38.40625 1.3125 -39.125 C 1.957031 -39.84375 2.78125 -40.382812 3.78125 -40.75 C 4.789062 -41.113281 5.84375 -41.296875 6.9375 -41.296875 C 8.019531 -41.296875 9.0625 -41.113281 10.0625 -40.75 C 11.070312 -40.382812 11.898438 -39.84375 12.546875 -39.125 C 13.203125 -38.40625 13.53125 -37.515625 13.53125 -36.453125 C 13.53125 -35.378906 13.203125 -34.484375 12.546875 -33.765625 C 11.898438 -33.046875 11.070312 -32.503906 10.0625 -32.140625 C 9.0625 -31.785156 8.019531 -31.609375 6.9375 -31.609375 Z M 10.65625 0 L 4.078125 0 C 3.273438 0 2.875 -0.398438 2.875 -1.203125 L 2.875 -27 C 5.789062 -26.394531 8.015625 -25.117188 9.546875 -23.171875 C 11.085938 -21.234375 11.859375 -18.71875 11.859375 -15.625 L 11.859375 -1.203125 C 11.859375 -0.398438 11.457031 0 10.65625 0 Z M 10.65625 0 "/></g></g><g style="fill:#15b0f8;fill-opacity:1;"><g transform="translate(247.819852, 110.724304)"><path style="stroke:none" d="M 19.875 -27.359375 C 22.226562 -27.359375 24.132812 -26.851562 25.59375 -25.84375 C 27.050781 -24.832031 28.117188 -23.425781 28.796875 -21.625 C 29.472656 -19.820312 29.8125 -17.722656 29.8125 -15.328125 L 29.8125 -1.203125 C 29.8125 -0.398438 29.410156 0 28.609375 0 L 22.03125 0 C 21.226562 0 20.828125 -0.398438 20.828125 -1.203125 L 20.828125 -15.328125 C 20.828125 -16.878906 20.515625 -18.070312 19.890625 -18.90625 C 19.265625 -19.75 18.242188 -20.171875 16.828125 -20.171875 C 15.546875 -20.171875 14.441406 -19.703125 13.515625 -18.765625 C 12.585938 -17.828125 12.035156 -16.53125 11.859375 -14.875 L 11.859375 -1.203125 C 11.859375 -0.398438 11.457031 0 10.65625 0 L 4.078125 0 C 3.273438 0 2.875 -0.398438 2.875 -1.203125 L 2.875 -27 C 4.644531 -26.632812 6.164062 -26.015625 7.4375 -25.140625 C 8.707031 -24.265625 9.710938 -23.15625 10.453125 -21.8125 C 11.804688 -23.832031 13.28125 -25.257812 14.875 -26.09375 C 16.46875 -26.9375 18.132812 -27.359375 19.875 -27.359375 Z M 19.875 -27.359375 "/></g></g><g style="fill:#15b0f8;fill-opacity:1;"><g transform="translate(275.657437, 110.724304)"><path style="stroke:none" d="M 14.71875 -26.390625 L 18.609375 -26.390625 C 19.410156 -26.390625 19.8125 -25.992188 19.8125 -25.203125 L 19.8125 -20.65625 C 19.8125 -19.851562 19.410156 -19.453125 18.609375 -19.453125 L 14.71875 -19.453125 L 14.71875 -1.203125 C 14.71875 -0.398438 14.320312 0 13.53125 0 L 6.9375 0 C 6.144531 0 5.75 -0.398438 5.75 -1.203125 L 5.75 -19.453125 L 1.921875 -19.453125 C 1.117188 -19.453125 0.71875 -19.851562 0.71875 -20.65625 L 0.71875 -25.203125 C 0.71875 -25.992188 1.117188 -26.390625 1.921875 -26.390625 L 5.75 -26.390625 C 5.75 -29.484375 6.519531 -32.003906 8.0625 -33.953125 C 9.613281 -35.898438 11.832031 -37.171875 14.71875 -37.765625 Z M 14.71875 -26.390625 "/></g></g><g style="fill:#15b0f8;fill-opacity:1;"><g transform="translate(291.701401, 110.724304)"><path style="stroke:none" d="M 15.921875 0.953125 C 13.390625 0.953125 11.109375 0.617188 9.078125 -0.046875 C 7.054688 -0.710938 5.390625 -1.742188 4.078125 -3.140625 C 2.773438 -4.535156 1.9375 -6.34375 1.5625 -8.5625 C 1.5 -8.957031 1.578125 -9.265625 1.796875 -9.484375 C 2.015625 -9.703125 2.3125 -9.8125 2.6875 -9.8125 L 9.21875 -9.8125 C 9.570312 -9.8125 9.847656 -9.710938 10.046875 -9.515625 C 10.253906 -9.316406 10.394531 -9.035156 10.46875 -8.671875 C 10.65625 -7.972656 10.972656 -7.398438 11.421875 -6.953125 C 11.867188 -6.503906 12.375 -6.15625 12.9375 -5.90625 C 13.507812 -5.65625 14.078125 -5.484375 14.640625 -5.390625 C 15.210938 -5.304688 15.703125 -5.265625 16.109375 -5.265625 C 17.523438 -5.265625 18.566406 -5.507812 19.234375 -6 C 19.898438 -6.488281 20.234375 -7.101562 20.234375 -7.84375 C 20.234375 -8.457031 19.984375 -8.941406 19.484375 -9.296875 C 18.984375 -9.660156 18.3125 -9.941406 17.46875 -10.140625 C 16.632812 -10.347656 15.691406 -10.523438 14.640625 -10.671875 C 13.597656 -10.816406 12.519531 -10.988281 11.40625 -11.1875 C 10.289062 -11.394531 9.207031 -11.660156 8.15625 -11.984375 C 7.101562 -12.316406 6.160156 -12.757812 5.328125 -13.3125 C 4.492188 -13.875 3.828125 -14.601562 3.328125 -15.5 C 2.828125 -16.394531 2.578125 -17.515625 2.578125 -18.859375 C 2.578125 -20.554688 3.054688 -22.039062 4.015625 -23.3125 C 4.972656 -24.59375 6.378906 -25.585938 8.234375 -26.296875 C 10.085938 -27.003906 12.367188 -27.359375 15.078125 -27.359375 C 18.597656 -27.359375 21.46875 -26.722656 23.6875 -25.453125 C 25.914062 -24.179688 27.359375 -22.257812 28.015625 -19.6875 C 28.109375 -19.269531 28.054688 -18.945312 27.859375 -18.71875 C 27.660156 -18.488281 27.351562 -18.375 26.9375 -18.375 L 20.53125 -18.375 C 19.914062 -18.375 19.457031 -18.710938 19.15625 -19.390625 C 18.789062 -20.171875 18.265625 -20.765625 17.578125 -21.171875 C 16.890625 -21.578125 15.898438 -21.78125 14.609375 -21.78125 C 13.566406 -21.78125 12.804688 -21.601562 12.328125 -21.25 C 11.847656 -20.90625 11.609375 -20.503906 11.609375 -20.046875 C 11.609375 -19.472656 11.859375 -19.015625 12.359375 -18.671875 C 12.859375 -18.335938 13.523438 -18.0625 14.359375 -17.84375 C 15.203125 -17.632812 16.144531 -17.453125 17.1875 -17.296875 C 18.238281 -17.140625 19.320312 -16.953125 20.4375 -16.734375 C 21.5625 -16.515625 22.644531 -16.222656 23.6875 -15.859375 C 24.738281 -15.503906 25.679688 -15.019531 26.515625 -14.40625 C 27.359375 -13.800781 28.023438 -13.035156 28.515625 -12.109375 C 29.015625 -11.179688 29.265625 -10.035156 29.265625 -8.671875 C 29.265625 -6.640625 28.734375 -4.90625 27.671875 -3.46875 C 26.617188 -2.03125 25.097656 -0.929688 23.109375 -0.171875 C 21.128906 0.578125 18.734375 0.953125 15.921875 0.953125 Z M 15.921875 0.953125 "/></g></g><path style="fill:none;stroke-width:2;stroke-linecap:butt;stroke-linejoin:miter;stroke:#093064;stroke-opacity:1;stroke-miterlimit:4;" d="M 0.000737678 0.997975 L 68.910831 0.997975 " transform="matrix(0.759708,0,0,0.759708,51.339283,127.581674)"/><path style="fill:none;stroke-width:2;stroke-linecap:butt;stroke-linejoin:miter;stroke:#093064;stroke-opacity:1;stroke-miterlimit:4;" d="M -0.00255456 0.997975 L 68.91268 0.997975 " transform="matrix(0.759708,0,0,0.759708,267.533191,127.581674)"/><g style="fill:#093064;fill-opacity:1;"><g transform="translate(122.351581, 130.240658)"><path style="stroke:none" d="M 3.046875 0.125 C 2.898438 0.125 2.773438 0.0703125 2.671875 -0.03125 C 2.578125 -0.132812 2.53125 -0.257812 2.53125 -0.40625 L 2.53125 -3.546875 L 0.25 -8.390625 C 0.207031 -8.472656 0.1875 -8.554688 0.1875 -8.640625 C 0.1875 -8.785156 0.238281 -8.90625 0.34375 -9 C 0.457031 -9.101562 0.582031 -9.15625 0.71875 -9.15625 C 0.789062 -9.15625 0.863281 -9.140625 0.9375 -9.109375 C 1.019531 -9.078125 1.078125 -9.023438 1.109375 -8.953125 L 3.046875 -4.734375 L 4.984375 -8.953125 C 5.023438 -9.023438 5.082031 -9.078125 5.15625 -9.109375 C 5.226562 -9.140625 5.300781 -9.15625 5.375 -9.15625 C 5.519531 -9.15625 5.644531 -9.101562 5.75 -9 C 5.851562 -8.90625 5.90625 -8.785156 5.90625 -8.640625 C 5.90625 -8.554688 5.890625 -8.472656 5.859375 -8.390625 L 3.578125 -3.53125 L 3.578125 -0.40625 C 3.578125 -0.269531 3.523438 -0.144531 3.421875 -0.03125 C 3.316406 0.0703125 3.191406 0.125 3.046875 0.125 Z M 3.046875 0.125 "/></g></g><g style="fill:#093064;fill-opacity:1;"><g transform="translate(128.448258, 130.240658)"><path style="stroke:none" d="M 2.96875 0.109375 C 2.445312 0.109375 2.007812 0.0078125 1.65625 -0.1875 C 1.300781 -0.394531 1.03125 -0.671875 0.84375 -1.015625 C 0.664062 -1.359375 0.578125 -1.742188 0.578125 -2.171875 L 0.578125 -4.3125 C 0.578125 -4.738281 0.664062 -5.125 0.84375 -5.46875 C 1.03125 -5.820312 1.300781 -6.097656 1.65625 -6.296875 C 2.007812 -6.492188 2.445312 -6.59375 2.96875 -6.59375 C 3.488281 -6.59375 3.925781 -6.492188 4.28125 -6.296875 C 4.632812 -6.097656 4.90625 -5.820312 5.09375 -5.46875 C 5.28125 -5.125 5.375 -4.738281 5.375 -4.3125 L 5.375 -2.171875 C 5.375 -1.742188 5.28125 -1.359375 5.09375 -1.015625 C 4.90625 -0.671875 4.632812 -0.394531 4.28125 -0.1875 C 3.925781 0.0078125 3.488281 0.109375 2.96875 0.109375 Z M 2.96875 -0.8125 C 3.4375 -0.8125 3.785156 -0.929688 4.015625 -1.171875 C 4.253906 -1.421875 4.375 -1.753906 4.375 -2.171875 L 4.375 -4.328125 C 4.375 -4.742188 4.253906 -5.070312 4.015625 -5.3125 C 3.785156 -5.550781 3.4375 -5.671875 2.96875 -5.671875 C 2.507812 -5.671875 2.160156 -5.550781 1.921875 -5.3125 C 1.691406 -5.070312 1.578125 -4.742188 1.578125 -4.328125 L 1.578125 -2.171875 C 1.578125 -1.753906 1.691406 -1.421875 1.921875 -1.171875 C 2.160156 -0.929688 2.507812 -0.8125 2.96875 -0.8125 Z M 2.96875 -0.8125 "/></g></g><g style="fill:#093064;fill-opacity:1;"><g transform="translate(134.391233, 130.240658)"><path style="stroke:none" d="M 4.515625 -1.578125 L 4.515625 -6.0625 C 4.515625 -6.195312 4.554688 -6.3125 4.640625 -6.40625 C 4.722656 -6.5 4.847656 -6.546875 5.015625 -6.546875 C 5.179688 -6.546875 5.304688 -6.5 5.390625 -6.40625 C 5.472656 -6.3125 5.515625 -6.195312 5.515625 -6.0625 L 5.515625 -1.578125 C 5.515625 -1.347656 5.523438 -1.175781 5.546875 -1.0625 C 5.578125 -0.957031 5.609375 -0.882812 5.640625 -0.84375 C 5.671875 -0.800781 5.703125 -0.742188 5.734375 -0.671875 C 5.753906 -0.648438 5.773438 -0.617188 5.796875 -0.578125 C 5.816406 -0.535156 5.828125 -0.484375 5.828125 -0.421875 C 5.828125 -0.304688 5.78125 -0.203125 5.6875 -0.109375 C 5.601562 -0.015625 5.492188 0.03125 5.359375 0.03125 C 5.234375 0.03125 5.125 -0.00390625 5.03125 -0.078125 C 4.945312 -0.148438 4.875 -0.242188 4.8125 -0.359375 C 4.519531 -0.191406 4.21875 -0.0703125 3.90625 0 C 3.59375 0.0703125 3.285156 0.109375 2.984375 0.109375 C 2.304688 0.109375 1.796875 -0.113281 1.453125 -0.5625 C 1.117188 -1.007812 0.953125 -1.59375 0.953125 -2.3125 L 0.953125 -6.0625 C 0.953125 -6.195312 0.992188 -6.3125 1.078125 -6.40625 C 1.160156 -6.5 1.285156 -6.546875 1.453125 -6.546875 C 1.609375 -6.546875 1.726562 -6.5 1.8125 -6.40625 C 1.90625 -6.3125 1.953125 -6.195312 1.953125 -6.0625 L 1.953125 -2.3125 C 1.953125 -1.832031 2.050781 -1.457031 2.25 -1.1875 C 2.445312 -0.925781 2.738281 -0.796875 3.125 -0.796875 C 3.625 -0.796875 4.09375 -0.9375 4.53125 -1.21875 C 4.519531 -1.28125 4.515625 -1.34375 4.515625 -1.40625 C 4.515625 -1.46875 4.515625 -1.523438 4.515625 -1.578125 Z M 4.515625 -1.578125 "/></g></g><g style="fill:#093064;fill-opacity:1;"><g transform="translate(140.910574, 130.240658)"><path style="stroke:none" d="M 1.984375 -4.734375 L 1.984375 -0.390625 C 1.984375 -0.253906 1.9375 -0.132812 1.84375 -0.03125 C 1.75 0.0625 1.628906 0.109375 1.484375 0.109375 C 1.347656 0.109375 1.226562 0.0625 1.125 -0.03125 C 1.03125 -0.132812 0.984375 -0.253906 0.984375 -0.390625 L 0.984375 -4.734375 C 0.984375 -5.117188 0.914062 -5.414062 0.78125 -5.625 C 0.757812 -5.664062 0.738281 -5.703125 0.71875 -5.734375 C 0.695312 -5.773438 0.6875 -5.820312 0.6875 -5.875 C 0.6875 -6.019531 0.734375 -6.128906 0.828125 -6.203125 C 0.921875 -6.285156 1.03125 -6.328125 1.15625 -6.328125 C 1.257812 -6.328125 1.351562 -6.296875 1.4375 -6.234375 C 1.53125 -6.171875 1.609375 -6.085938 1.671875 -5.984375 C 1.941406 -6.148438 2.238281 -6.28125 2.5625 -6.375 C 2.894531 -6.476562 3.179688 -6.53125 3.421875 -6.53125 C 3.679688 -6.53125 3.859375 -6.484375 3.953125 -6.390625 C 4.046875 -6.296875 4.09375 -6.179688 4.09375 -6.046875 C 4.09375 -5.878906 4.039062 -5.75 3.9375 -5.65625 C 3.84375 -5.5625 3.726562 -5.519531 3.59375 -5.53125 C 3.320312 -5.539062 3.0625 -5.523438 2.8125 -5.484375 C 2.570312 -5.453125 2.285156 -5.316406 1.953125 -5.078125 C 1.960938 -5.015625 1.96875 -4.953125 1.96875 -4.890625 C 1.976562 -4.835938 1.984375 -4.785156 1.984375 -4.734375 Z M 1.984375 -4.734375 "/></g></g><g style="fill:#093064;fill-opacity:1;"><g transform="translate(145.226917, 130.240658)"><path style="stroke:none" d=""/></g></g><g style="fill:#093064;fill-opacity:1;"><g transform="translate(149.069357, 130.240658)"><path style="stroke:none" d="M 4 -8.65625 L 4 -2.890625 C 4 -2.265625 3.921875 -1.726562 3.765625 -1.28125 C 3.609375 -0.832031 3.34375 -0.484375 2.96875 -0.234375 C 2.59375 0.00390625 2.070312 0.125 1.40625 0.125 C 1.289062 0.125 1.144531 0.113281 0.96875 0.09375 C 0.800781 0.0703125 0.648438 0.0234375 0.515625 -0.046875 C 0.390625 -0.128906 0.328125 -0.265625 0.328125 -0.453125 C 0.328125 -0.609375 0.375 -0.726562 0.46875 -0.8125 C 0.570312 -0.90625 0.671875 -0.953125 0.765625 -0.953125 C 0.835938 -0.953125 0.9375 -0.9375 1.0625 -0.90625 C 1.1875 -0.875 1.347656 -0.859375 1.546875 -0.859375 C 1.941406 -0.859375 2.238281 -0.941406 2.4375 -1.109375 C 2.644531 -1.273438 2.785156 -1.507812 2.859375 -1.8125 C 2.929688 -2.113281 2.96875 -2.472656 2.96875 -2.890625 L 2.96875 -8.65625 C 2.96875 -8.789062 3.015625 -8.90625 3.109375 -9 C 3.210938 -9.101562 3.335938 -9.15625 3.484375 -9.15625 C 3.617188 -9.15625 3.738281 -9.101562 3.84375 -9 C 3.945312 -8.90625 4 -8.789062 4 -8.65625 Z M 4 -8.65625 "/></g></g><g style="fill:#093064;fill-opacity:1;"><g transform="translate(154.000494, 130.240658)"><path style="stroke:none" d="M 2.96875 0.109375 C 2.445312 0.109375 2.007812 0.0078125 1.65625 -0.1875 C 1.300781 -0.394531 1.03125 -0.671875 0.84375 -1.015625 C 0.664062 -1.359375 0.578125 -1.742188 0.578125 -2.171875 L 0.578125 -4.3125 C 0.578125 -4.738281 0.664062 -5.125 0.84375 -5.46875 C 1.03125 -5.820312 1.300781 -6.097656 1.65625 -6.296875 C 2.007812 -6.492188 2.445312 -6.59375 2.96875 -6.59375 C 3.488281 -6.59375 3.925781 -6.492188 4.28125 -6.296875 C 4.632812 -6.097656 4.90625 -5.820312 5.09375 -5.46875 C 5.28125 -5.125 5.375 -4.738281 5.375 -4.3125 L 5.375 -2.171875 C 5.375 -1.742188 5.28125 -1.359375 5.09375 -1.015625 C 4.90625 -0.671875 4.632812 -0.394531 4.28125 -0.1875 C 3.925781 0.0078125 3.488281 0.109375 2.96875 0.109375 Z M 2.96875 -0.8125 C 3.4375 -0.8125 3.785156 -0.929688 4.015625 -1.171875 C 4.253906 -1.421875 4.375 -1.753906 4.375 -2.171875 L 4.375 -4.328125 C 4.375 -4.742188 4.253906 -5.070312 4.015625 -5.3125 C 3.785156 -5.550781 3.4375 -5.671875 2.96875 -5.671875 C 2.507812 -5.671875 2.160156 -5.550781 1.921875 -5.3125 C 1.691406 -5.070312 1.578125 -4.742188 1.578125 -4.328125 L 1.578125 -2.171875 C 1.578125 -1.753906 1.691406 -1.421875 1.921875 -1.171875 C 2.160156 -0.929688 2.507812 -0.8125 2.96875 -0.8125 Z M 2.96875 -0.8125 "/></g></g><g style="fill:#093064;fill-opacity:1;"><g transform="translate(159.943469, 130.240658)"><path style="stroke:none" d="M 4.515625 -1.578125 L 4.515625 -6.0625 C 4.515625 -6.195312 4.554688 -6.3125 4.640625 -6.40625 C 4.722656 -6.5 4.847656 -6.546875 5.015625 -6.546875 C 5.179688 -6.546875 5.304688 -6.5 5.390625 -6.40625 C 5.472656 -6.3125 5.515625 -6.195312 5.515625 -6.0625 L 5.515625 -1.578125 C 5.515625 -1.347656 5.523438 -1.175781 5.546875 -1.0625 C 5.578125 -0.957031 5.609375 -0.882812 5.640625 -0.84375 C 5.671875 -0.800781 5.703125 -0.742188 5.734375 -0.671875 C 5.753906 -0.648438 5.773438 -0.617188 5.796875 -0.578125 C 5.816406 -0.535156 5.828125 -0.484375 5.828125 -0.421875 C 5.828125 -0.304688 5.78125 -0.203125 5.6875 -0.109375 C 5.601562 -0.015625 5.492188 0.03125 5.359375 0.03125 C 5.234375 0.03125 5.125 -0.00390625 5.03125 -0.078125 C 4.945312 -0.148438 4.875 -0.242188 4.8125 -0.359375 C 4.519531 -0.191406 4.21875 -0.0703125 3.90625 0 C 3.59375 0.0703125 3.285156 0.109375 2.984375 0.109375 C 2.304688 0.109375 1.796875 -0.113281 1.453125 -0.5625 C 1.117188 -1.007812 0.953125 -1.59375 0.953125 -2.3125 L 0.953125 -6.0625 C 0.953125 -6.195312 0.992188 -6.3125 1.078125 -6.40625 C 1.160156 -6.5 1.285156 -6.546875 1.453125 -6.546875 C 1.609375 -6.546875 1.726562 -6.5 1.8125 -6.40625 C 1.90625 -6.3125 1.953125 -6.195312 1.953125 -6.0625 L 1.953125 -2.3125 C 1.953125 -1.832031 2.050781 -1.457031 2.25 -1.1875 C 2.445312 -0.925781 2.738281 -0.796875 3.125 -0.796875 C 3.625 -0.796875 4.09375 -0.9375 4.53125 -1.21875 C 4.519531 -1.28125 4.515625 -1.34375 4.515625 -1.40625 C 4.515625 -1.46875 4.515625 -1.523438 4.515625 -1.578125 Z M 4.515625 -1.578125 "/></g></g><g style="fill:#093064;fill-opacity:1;"><g transform="translate(166.46281, 130.240658)"><path style="stroke:none" d="M 1.984375 -4.734375 L 1.984375 -0.390625 C 1.984375 -0.253906 1.9375 -0.132812 1.84375 -0.03125 C 1.75 0.0625 1.628906 0.109375 1.484375 0.109375 C 1.347656 0.109375 1.226562 0.0625 1.125 -0.03125 C 1.03125 -0.132812 0.984375 -0.253906 0.984375 -0.390625 L 0.984375 -4.734375 C 0.984375 -5.117188 0.914062 -5.414062 0.78125 -5.625 C 0.757812 -5.664062 0.738281 -5.703125 0.71875 -5.734375 C 0.695312 -5.773438 0.6875 -5.820312 0.6875 -5.875 C 0.6875 -6.019531 0.734375 -6.128906 0.828125 -6.203125 C 0.921875 -6.285156 1.03125 -6.328125 1.15625 -6.328125 C 1.257812 -6.328125 1.351562 -6.296875 1.4375 -6.234375 C 1.53125 -6.171875 1.609375 -6.085938 1.671875 -5.984375 C 1.941406 -6.148438 2.238281 -6.28125 2.5625 -6.375 C 2.894531 -6.476562 3.179688 -6.53125 3.421875 -6.53125 C 3.679688 -6.53125 3.859375 -6.484375 3.953125 -6.390625 C 4.046875 -6.296875 4.09375 -6.179688 4.09375 -6.046875 C 4.09375 -5.878906 4.039062 -5.75 3.9375 -5.65625 C 3.84375 -5.5625 3.726562 -5.519531 3.59375 -5.53125 C 3.320312 -5.539062 3.0625 -5.523438 2.8125 -5.484375 C 2.570312 -5.453125 2.285156 -5.316406 1.953125 -5.078125 C 1.960938 -5.015625 1.96875 -4.953125 1.96875 -4.890625 C 1.976562 -4.835938 1.984375 -4.785156 1.984375 -4.734375 Z M 1.984375 -4.734375 "/></g></g><g style="fill:#093064;fill-opacity:1;"><g transform="translate(170.779153, 130.240658)"><path style="stroke:none" d="M 1.984375 -4.75 L 1.984375 -0.390625 C 1.984375 -0.253906 1.941406 -0.140625 1.859375 -0.046875 C 1.785156 0.046875 1.660156 0.09375 1.484375 0.09375 C 1.328125 0.09375 1.203125 0.046875 1.109375 -0.046875 C 1.023438 -0.140625 0.984375 -0.253906 0.984375 -0.390625 L 0.984375 -4.75 C 0.984375 -4.988281 0.972656 -5.160156 0.953125 -5.265625 C 0.929688 -5.367188 0.898438 -5.441406 0.859375 -5.484375 C 0.828125 -5.535156 0.789062 -5.59375 0.75 -5.65625 C 0.75 -5.675781 0.734375 -5.707031 0.703125 -5.75 C 0.679688 -5.789062 0.671875 -5.84375 0.671875 -5.90625 C 0.671875 -6.03125 0.710938 -6.132812 0.796875 -6.21875 C 0.890625 -6.3125 1.003906 -6.359375 1.140625 -6.359375 C 1.253906 -6.359375 1.351562 -6.320312 1.4375 -6.25 C 1.53125 -6.1875 1.609375 -6.097656 1.671875 -5.984375 C 1.953125 -6.179688 2.25 -6.328125 2.5625 -6.421875 C 2.882812 -6.515625 3.203125 -6.5625 3.515625 -6.5625 C 4.191406 -6.5625 4.695312 -6.335938 5.03125 -5.890625 C 5.375 -5.453125 5.546875 -4.867188 5.546875 -4.140625 L 5.546875 -0.390625 C 5.546875 -0.253906 5.503906 -0.140625 5.421875 -0.046875 C 5.335938 0.046875 5.210938 0.09375 5.046875 0.09375 C 4.890625 0.09375 4.765625 0.046875 4.671875 -0.046875 C 4.585938 -0.140625 4.546875 -0.253906 4.546875 -0.390625 L 4.546875 -4.140625 C 4.546875 -4.628906 4.445312 -5.003906 4.25 -5.265625 C 4.050781 -5.523438 3.757812 -5.65625 3.375 -5.65625 C 3.125 -5.65625 2.878906 -5.609375 2.640625 -5.515625 C 2.398438 -5.421875 2.171875 -5.289062 1.953125 -5.125 C 1.972656 -4.988281 1.984375 -4.863281 1.984375 -4.75 Z M 1.984375 -4.75 "/></g></g><g style="fill:#093064;fill-opacity:1;"><g transform="translate(177.298494, 130.240658)"><path style="stroke:none" d="M 2.96875 -0.78125 C 3.238281 -0.78125 3.472656 -0.8125 3.671875 -0.875 C 3.867188 -0.945312 4.082031 -1.035156 4.3125 -1.140625 C 4.320312 -1.148438 4.34375 -1.15625 4.375 -1.15625 C 4.40625 -1.164062 4.441406 -1.171875 4.484375 -1.171875 C 4.609375 -1.171875 4.710938 -1.125 4.796875 -1.03125 C 4.890625 -0.945312 4.9375 -0.847656 4.9375 -0.734375 C 4.9375 -0.578125 4.859375 -0.441406 4.703125 -0.328125 C 4.554688 -0.222656 4.367188 -0.140625 4.140625 -0.078125 C 3.921875 -0.015625 3.691406 0.03125 3.453125 0.0625 C 3.222656 0.09375 3.023438 0.109375 2.859375 0.109375 C 2.128906 0.109375 1.566406 -0.09375 1.171875 -0.5 C 0.773438 -0.914062 0.578125 -1.425781 0.578125 -2.03125 L 0.578125 -4.421875 C 0.578125 -5.035156 0.773438 -5.546875 1.171875 -5.953125 C 1.578125 -6.367188 2.160156 -6.578125 2.921875 -6.578125 C 3.628906 -6.578125 4.160156 -6.390625 4.515625 -6.015625 C 4.867188 -5.640625 5.046875 -5.132812 5.046875 -4.5 C 5.046875 -3.90625 4.875 -3.4375 4.53125 -3.09375 C 4.1875 -2.757812 3.640625 -2.59375 2.890625 -2.59375 C 2.691406 -2.59375 2.476562 -2.601562 2.25 -2.625 C 2.019531 -2.65625 1.796875 -2.6875 1.578125 -2.71875 L 1.578125 -1.953125 C 1.578125 -1.597656 1.691406 -1.3125 1.921875 -1.09375 C 2.160156 -0.882812 2.507812 -0.78125 2.96875 -0.78125 Z M 4.0625 -4.5 C 4.0625 -4.914062 3.957031 -5.210938 3.75 -5.390625 C 3.550781 -5.578125 3.265625 -5.671875 2.890625 -5.671875 C 2.472656 -5.671875 2.148438 -5.566406 1.921875 -5.359375 C 1.691406 -5.148438 1.578125 -4.867188 1.578125 -4.515625 L 1.578125 -3.53125 C 1.816406 -3.5 2.066406 -3.476562 2.328125 -3.46875 C 2.597656 -3.457031 2.796875 -3.453125 2.921875 -3.453125 C 3.242188 -3.453125 3.484375 -3.5 3.640625 -3.59375 C 3.804688 -3.695312 3.914062 -3.828125 3.96875 -3.984375 C 4.03125 -4.148438 4.0625 -4.320312 4.0625 -4.5 Z M 4.0625 -4.5 "/></g></g><g style="fill:#093064;fill-opacity:1;"><g transform="translate(182.870031, 130.240658)"><path style="stroke:none" d="M 5.09375 -5.890625 L 3.53125 -0.8125 C 3.320312 -0.144531 3.109375 0.441406 2.890625 0.953125 C 2.679688 1.460938 2.410156 1.859375 2.078125 2.140625 C 1.753906 2.429688 1.3125 2.582031 0.75 2.59375 C 0.601562 2.59375 0.484375 2.546875 0.390625 2.453125 C 0.296875 2.359375 0.25 2.242188 0.25 2.109375 C 0.25 1.992188 0.289062 1.890625 0.375 1.796875 C 0.457031 1.703125 0.570312 1.648438 0.71875 1.640625 C 1.113281 1.617188 1.421875 1.484375 1.640625 1.234375 C 1.867188 0.992188 2.078125 0.570312 2.265625 -0.03125 L 0.234375 -5.90625 C 0.222656 -5.925781 0.210938 -5.953125 0.203125 -5.984375 C 0.203125 -6.023438 0.203125 -6.0625 0.203125 -6.09375 C 0.203125 -6.226562 0.25 -6.335938 0.34375 -6.421875 C 0.445312 -6.503906 0.566406 -6.546875 0.703125 -6.546875 C 0.921875 -6.546875 1.070312 -6.4375 1.15625 -6.21875 L 2.75 -1.359375 L 4.15625 -6.21875 C 4.195312 -6.320312 4.257812 -6.398438 4.34375 -6.453125 C 4.425781 -6.515625 4.515625 -6.546875 4.609375 -6.546875 C 4.742188 -6.546875 4.859375 -6.5 4.953125 -6.40625 C 5.054688 -6.3125 5.109375 -6.191406 5.109375 -6.046875 C 5.109375 -6.023438 5.101562 -6 5.09375 -5.96875 C 5.09375 -5.945312 5.09375 -5.921875 5.09375 -5.890625 Z M 5.09375 -5.890625 "/></g></g><g style="fill:#093064;fill-opacity:1;"><g transform="translate(188.146987, 130.240658)"><path style="stroke:none" d=""/></g></g><g style="fill:#093064;fill-opacity:1;"><g transform="translate(191.989428, 130.240658)"><path style="stroke:none" d="M 4.609375 -2.453125 C 4.609375 -2.867188 4.523438 -3.164062 4.359375 -3.34375 C 4.203125 -3.519531 4.039062 -3.648438 3.875 -3.734375 C 3.644531 -3.867188 3.378906 -3.984375 3.078125 -4.078125 C 2.773438 -4.179688 2.472656 -4.285156 2.171875 -4.390625 C 1.878906 -4.503906 1.609375 -4.648438 1.359375 -4.828125 C 1.109375 -5.015625 0.90625 -5.253906 0.75 -5.546875 C 0.601562 -5.835938 0.53125 -6.207031 0.53125 -6.65625 C 0.53125 -7.4375 0.765625 -8.046875 1.234375 -8.484375 C 1.703125 -8.929688 2.332031 -9.15625 3.125 -9.15625 C 3.289062 -9.15625 3.492188 -9.140625 3.734375 -9.109375 C 3.972656 -9.085938 4.210938 -9.046875 4.453125 -8.984375 C 4.703125 -8.929688 4.90625 -8.847656 5.0625 -8.734375 C 5.226562 -8.617188 5.3125 -8.472656 5.3125 -8.296875 C 5.3125 -8.160156 5.265625 -8.039062 5.171875 -7.9375 C 5.085938 -7.84375 4.96875 -7.796875 4.8125 -7.796875 C 4.675781 -7.796875 4.539062 -7.828125 4.40625 -7.890625 C 4.269531 -7.953125 4.109375 -8.007812 3.921875 -8.0625 C 3.734375 -8.125 3.492188 -8.15625 3.203125 -8.15625 C 2.929688 -8.15625 2.671875 -8.113281 2.421875 -8.03125 C 2.179688 -7.945312 1.984375 -7.800781 1.828125 -7.59375 C 1.679688 -7.394531 1.609375 -7.109375 1.609375 -6.734375 C 1.609375 -6.441406 1.644531 -6.210938 1.71875 -6.046875 C 1.800781 -5.878906 1.898438 -5.75 2.015625 -5.65625 C 2.140625 -5.5625 2.25 -5.492188 2.34375 -5.453125 C 2.59375 -5.316406 2.863281 -5.195312 3.15625 -5.09375 C 3.457031 -5 3.753906 -4.894531 4.046875 -4.78125 C 4.347656 -4.664062 4.617188 -4.519531 4.859375 -4.34375 C 5.109375 -4.164062 5.304688 -3.929688 5.453125 -3.640625 C 5.609375 -3.359375 5.6875 -2.988281 5.6875 -2.53125 C 5.6875 -1.96875 5.5625 -1.488281 5.3125 -1.09375 C 5.070312 -0.695312 4.738281 -0.394531 4.3125 -0.1875 C 3.894531 0.0195312 3.421875 0.125 2.890625 0.125 C 2.679688 0.125 2.441406 0.109375 2.171875 0.078125 C 1.898438 0.046875 1.640625 -0.00390625 1.390625 -0.078125 C 1.148438 -0.148438 0.945312 -0.25 0.78125 -0.375 C 0.613281 -0.5 0.53125 -0.644531 0.53125 -0.8125 C 0.53125 -0.945312 0.570312 -1.0625 0.65625 -1.15625 C 0.75 -1.257812 0.859375 -1.3125 0.984375 -1.3125 C 1.109375 -1.3125 1.253906 -1.273438 1.421875 -1.203125 C 1.585938 -1.140625 1.789062 -1.066406 2.03125 -0.984375 C 2.269531 -0.910156 2.554688 -0.875 2.890625 -0.875 C 3.460938 -0.875 3.890625 -1.007812 4.171875 -1.28125 C 4.460938 -1.5625 4.609375 -1.953125 4.609375 -2.453125 Z M 4.609375 -2.453125 "/></g></g><g style="fill:#093064;fill-opacity:1;"><g transform="translate(198.214187, 130.240658)"><path style="stroke:none" d="M 0.953125 -2.59375 L 0.953125 -7.953125 C 0.953125 -8.085938 0.992188 -8.203125 1.078125 -8.296875 C 1.160156 -8.390625 1.285156 -8.4375 1.453125 -8.4375 C 1.609375 -8.4375 1.726562 -8.390625 1.8125 -8.296875 C 1.90625 -8.203125 1.953125 -8.085938 1.953125 -7.953125 L 1.953125 -6.1875 L 3.28125 -6.1875 C 3.40625 -6.1875 3.507812 -6.140625 3.59375 -6.046875 C 3.6875 -5.960938 3.734375 -5.851562 3.734375 -5.71875 C 3.734375 -5.582031 3.6875 -5.46875 3.59375 -5.375 C 3.507812 -5.28125 3.40625 -5.234375 3.28125 -5.234375 L 1.953125 -5.234375 L 1.953125 -2.6875 C 1.953125 -2.25 1.972656 -1.898438 2.015625 -1.640625 C 2.066406 -1.378906 2.164062 -1.1875 2.3125 -1.0625 C 2.457031 -0.945312 2.6875 -0.890625 3 -0.890625 C 3.039062 -0.890625 3.082031 -0.890625 3.125 -0.890625 C 3.164062 -0.890625 3.203125 -0.890625 3.234375 -0.890625 C 3.378906 -0.890625 3.523438 -0.863281 3.671875 -0.8125 C 3.828125 -0.769531 3.90625 -0.644531 3.90625 -0.4375 C 3.90625 -0.21875 3.828125 -0.0820312 3.671875 -0.03125 C 3.523438 0.0195312 3.359375 0.046875 3.171875 0.046875 C 2.578125 0.046875 2.117188 -0.046875 1.796875 -0.234375 C 1.472656 -0.429688 1.25 -0.726562 1.125 -1.125 C 1.007812 -1.519531 0.953125 -2.007812 0.953125 -2.59375 Z M 0.953125 -2.59375 "/></g></g><g style="fill:#093064;fill-opacity:1;"><g transform="translate(202.325602, 130.240658)"><path style="stroke:none" d="M 4.125 -3.59375 L 4.125 -4.328125 C 4.125 -5.242188 3.664062 -5.703125 2.75 -5.703125 C 2.53125 -5.703125 2.347656 -5.675781 2.203125 -5.625 C 2.066406 -5.570312 1.925781 -5.507812 1.78125 -5.4375 C 1.757812 -5.425781 1.710938 -5.40625 1.640625 -5.375 C 1.578125 -5.34375 1.515625 -5.328125 1.453125 -5.328125 C 1.328125 -5.328125 1.238281 -5.375 1.1875 -5.46875 C 1.132812 -5.5625 1.101562 -5.65625 1.09375 -5.75 C 1.070312 -5.945312 1.148438 -6.109375 1.328125 -6.234375 C 1.515625 -6.359375 1.75 -6.445312 2.03125 -6.5 C 2.3125 -6.550781 2.597656 -6.578125 2.890625 -6.578125 C 3.691406 -6.578125 4.265625 -6.359375 4.609375 -5.921875 C 4.953125 -5.484375 5.125 -4.84375 5.125 -4 L 5.125 -1.171875 C 5.125 -0.921875 5.203125 -0.796875 5.359375 -0.796875 C 5.367188 -0.796875 5.378906 -0.796875 5.390625 -0.796875 C 5.410156 -0.804688 5.429688 -0.8125 5.453125 -0.8125 C 5.578125 -0.8125 5.671875 -0.765625 5.734375 -0.671875 C 5.796875 -0.578125 5.828125 -0.476562 5.828125 -0.375 C 5.828125 -0.207031 5.765625 -0.09375 5.640625 -0.03125 C 5.523438 0.03125 5.394531 0.0625 5.25 0.0625 C 5.039062 0.0625 4.851562 0.00390625 4.6875 -0.109375 C 4.519531 -0.222656 4.390625 -0.378906 4.296875 -0.578125 C 3.796875 -0.117188 3.207031 0.109375 2.53125 0.109375 C 1.875 0.109375 1.382812 -0.0664062 1.0625 -0.421875 C 0.738281 -0.785156 0.578125 -1.253906 0.578125 -1.828125 L 0.578125 -1.890625 C 0.578125 -3.148438 1.328125 -3.78125 2.828125 -3.78125 C 3.285156 -3.78125 3.71875 -3.71875 4.125 -3.59375 Z M 2.8125 -2.9375 C 2.46875 -2.9375 2.203125 -2.882812 2.015625 -2.78125 C 1.835938 -2.6875 1.71875 -2.5625 1.65625 -2.40625 C 1.59375 -2.25 1.5625 -2.070312 1.5625 -1.875 L 1.5625 -1.8125 C 1.5625 -1.519531 1.640625 -1.273438 1.796875 -1.078125 C 1.960938 -0.890625 2.257812 -0.796875 2.6875 -0.796875 C 3.207031 -0.796875 3.6875 -0.984375 4.125 -1.359375 L 4.125 -2.734375 C 3.914062 -2.804688 3.691406 -2.859375 3.453125 -2.890625 C 3.222656 -2.921875 3.007812 -2.9375 2.8125 -2.9375 Z M 2.8125 -2.9375 "/></g></g><g style="fill:#093064;fill-opacity:1;"><g transform="translate(208.499124, 130.240658)"><path style="stroke:none" d="M 1.984375 -4.734375 L 1.984375 -0.390625 C 1.984375 -0.253906 1.9375 -0.132812 1.84375 -0.03125 C 1.75 0.0625 1.628906 0.109375 1.484375 0.109375 C 1.347656 0.109375 1.226562 0.0625 1.125 -0.03125 C 1.03125 -0.132812 0.984375 -0.253906 0.984375 -0.390625 L 0.984375 -4.734375 C 0.984375 -5.117188 0.914062 -5.414062 0.78125 -5.625 C 0.757812 -5.664062 0.738281 -5.703125 0.71875 -5.734375 C 0.695312 -5.773438 0.6875 -5.820312 0.6875 -5.875 C 0.6875 -6.019531 0.734375 -6.128906 0.828125 -6.203125 C 0.921875 -6.285156 1.03125 -6.328125 1.15625 -6.328125 C 1.257812 -6.328125 1.351562 -6.296875 1.4375 -6.234375 C 1.53125 -6.171875 1.609375 -6.085938 1.671875 -5.984375 C 1.941406 -6.148438 2.238281 -6.28125 2.5625 -6.375 C 2.894531 -6.476562 3.179688 -6.53125 3.421875 -6.53125 C 3.679688 -6.53125 3.859375 -6.484375 3.953125 -6.390625 C 4.046875 -6.296875 4.09375 -6.179688 4.09375 -6.046875 C 4.09375 -5.878906 4.039062 -5.75 3.9375 -5.65625 C 3.84375 -5.5625 3.726562 -5.519531 3.59375 -5.53125 C 3.320312 -5.539062 3.0625 -5.523438 2.8125 -5.484375 C 2.570312 -5.453125 2.285156 -5.316406 1.953125 -5.078125 C 1.960938 -5.015625 1.96875 -4.953125 1.96875 -4.890625 C 1.976562 -4.835938 1.984375 -4.785156 1.984375 -4.734375 Z M 1.984375 -4.734375 "/></g></g><g style="fill:#093064;fill-opacity:1;"><g transform="translate(212.815466, 130.240658)"><path style="stroke:none" d="M 0.953125 -2.59375 L 0.953125 -7.953125 C 0.953125 -8.085938 0.992188 -8.203125 1.078125 -8.296875 C 1.160156 -8.390625 1.285156 -8.4375 1.453125 -8.4375 C 1.609375 -8.4375 1.726562 -8.390625 1.8125 -8.296875 C 1.90625 -8.203125 1.953125 -8.085938 1.953125 -7.953125 L 1.953125 -6.1875 L 3.28125 -6.1875 C 3.40625 -6.1875 3.507812 -6.140625 3.59375 -6.046875 C 3.6875 -5.960938 3.734375 -5.851562 3.734375 -5.71875 C 3.734375 -5.582031 3.6875 -5.46875 3.59375 -5.375 C 3.507812 -5.28125 3.40625 -5.234375 3.28125 -5.234375 L 1.953125 -5.234375 L 1.953125 -2.6875 C 1.953125 -2.25 1.972656 -1.898438 2.015625 -1.640625 C 2.066406 -1.378906 2.164062 -1.1875 2.3125 -1.0625 C 2.457031 -0.945312 2.6875 -0.890625 3 -0.890625 C 3.039062 -0.890625 3.082031 -0.890625 3.125 -0.890625 C 3.164062 -0.890625 3.203125 -0.890625 3.234375 -0.890625 C 3.378906 -0.890625 3.523438 -0.863281 3.671875 -0.8125 C 3.828125 -0.769531 3.90625 -0.644531 3.90625 -0.4375 C 3.90625 -0.21875 3.828125 -0.0820312 3.671875 -0.03125 C 3.523438 0.0195312 3.359375 0.046875 3.171875 0.046875 C 2.578125 0.046875 2.117188 -0.046875 1.796875 -0.234375 C 1.472656 -0.429688 1.25 -0.726562 1.125 -1.125 C 1.007812 -1.519531 0.953125 -2.007812 0.953125 -2.59375 Z M 0.953125 -2.59375 "/></g></g><g style="fill:#093064;fill-opacity:1;"><g transform="translate(216.926881, 130.240658)"><path style="stroke:none" d="M 0.671875 -4.734375 C 0.671875 -5.296875 0.847656 -5.742188 1.203125 -6.078125 C 1.566406 -6.410156 2.082031 -6.578125 2.75 -6.578125 C 2.976562 -6.578125 3.222656 -6.554688 3.484375 -6.515625 C 3.742188 -6.472656 3.96875 -6.398438 4.15625 -6.296875 C 4.351562 -6.191406 4.453125 -6.050781 4.453125 -5.875 C 4.453125 -5.75 4.410156 -5.640625 4.328125 -5.546875 C 4.242188 -5.453125 4.132812 -5.40625 4 -5.40625 C 3.925781 -5.40625 3.847656 -5.425781 3.765625 -5.46875 C 3.628906 -5.539062 3.488281 -5.597656 3.34375 -5.640625 C 3.207031 -5.679688 3.023438 -5.703125 2.796875 -5.703125 C 2.035156 -5.703125 1.65625 -5.40625 1.65625 -4.8125 C 1.65625 -4.613281 1.703125 -4.453125 1.796875 -4.328125 C 1.890625 -4.210938 2.039062 -4.097656 2.25 -3.984375 C 2.476562 -3.867188 2.726562 -3.765625 3 -3.671875 C 3.269531 -3.585938 3.53125 -3.472656 3.78125 -3.328125 C 4.03125 -3.191406 4.234375 -3 4.390625 -2.75 C 4.554688 -2.507812 4.640625 -2.179688 4.640625 -1.765625 C 4.640625 -1.191406 4.457031 -0.734375 4.09375 -0.390625 C 3.726562 -0.0546875 3.191406 0.109375 2.484375 0.109375 C 2.328125 0.109375 2.140625 0.09375 1.921875 0.0625 C 1.710938 0.0390625 1.503906 0.00390625 1.296875 -0.046875 C 1.097656 -0.0976562 0.929688 -0.171875 0.796875 -0.265625 C 0.671875 -0.367188 0.609375 -0.492188 0.609375 -0.640625 C 0.609375 -0.753906 0.644531 -0.859375 0.71875 -0.953125 C 0.800781 -1.054688 0.921875 -1.109375 1.078125 -1.109375 C 1.117188 -1.109375 1.144531 -1.101562 1.15625 -1.09375 C 1.164062 -1.09375 1.179688 -1.085938 1.203125 -1.078125 C 1.378906 -1.003906 1.570312 -0.9375 1.78125 -0.875 C 1.988281 -0.8125 2.222656 -0.78125 2.484375 -0.78125 C 2.835938 -0.78125 3.125 -0.851562 3.34375 -1 C 3.5625 -1.15625 3.671875 -1.398438 3.671875 -1.734375 C 3.671875 -1.960938 3.617188 -2.132812 3.515625 -2.25 C 3.421875 -2.363281 3.3125 -2.457031 3.1875 -2.53125 C 2.988281 -2.632812 2.742188 -2.726562 2.453125 -2.8125 C 2.171875 -2.90625 1.894531 -3.019531 1.625 -3.15625 C 1.351562 -3.300781 1.125 -3.492188 0.9375 -3.734375 C 0.757812 -3.984375 0.671875 -4.316406 0.671875 -4.734375 Z M 0.671875 -4.734375 "/></g></g><g style="fill:#093064;fill-opacity:1;"><g transform="translate(222.126992, 130.240658)"><path style="stroke:none" d=""/></g></g><g style="fill:#093064;fill-opacity:1;"><g transform="translate(225.969433, 130.240658)"><path style="stroke:none" d="M 6.484375 -0.390625 C 6.484375 -0.253906 6.429688 -0.132812 6.328125 -0.03125 C 6.234375 0.0703125 6.113281 0.125 5.96875 0.125 C 5.832031 0.125 5.710938 0.0703125 5.609375 -0.03125 C 5.503906 -0.132812 5.453125 -0.253906 5.453125 -0.390625 L 5.453125 -4.015625 L 1.953125 -4.015625 L 1.953125 -0.390625 C 1.953125 -0.253906 1.90625 -0.132812 1.8125 -0.03125 C 1.71875 0.0703125 1.597656 0.125 1.453125 0.125 C 1.316406 0.125 1.195312 0.0703125 1.09375 -0.03125 C 0.988281 -0.132812 0.9375 -0.253906 0.9375 -0.390625 L 0.9375 -8.65625 C 0.9375 -8.789062 0.988281 -8.90625 1.09375 -9 C 1.195312 -9.101562 1.316406 -9.15625 1.453125 -9.15625 C 1.597656 -9.15625 1.71875 -9.101562 1.8125 -9 C 1.90625 -8.90625 1.953125 -8.789062 1.953125 -8.65625 L 1.953125 -5.015625 L 5.453125 -5.015625 L 5.453125 -8.65625 C 5.453125 -8.789062 5.503906 -8.90625 5.609375 -9 C 5.710938 -9.101562 5.832031 -9.15625 5.96875 -9.15625 C 6.101562 -9.15625 6.222656 -9.101562 6.328125 -9 C 6.429688 -8.90625 6.484375 -8.789062 6.484375 -8.65625 Z M 6.484375 -0.390625 "/></g></g><g style="fill:#093064;fill-opacity:1;"><g transform="translate(233.398161, 130.240658)"><path style="stroke:none" d="M 2.96875 -0.78125 C 3.238281 -0.78125 3.472656 -0.8125 3.671875 -0.875 C 3.867188 -0.945312 4.082031 -1.035156 4.3125 -1.140625 C 4.320312 -1.148438 4.34375 -1.15625 4.375 -1.15625 C 4.40625 -1.164062 4.441406 -1.171875 4.484375 -1.171875 C 4.609375 -1.171875 4.710938 -1.125 4.796875 -1.03125 C 4.890625 -0.945312 4.9375 -0.847656 4.9375 -0.734375 C 4.9375 -0.578125 4.859375 -0.441406 4.703125 -0.328125 C 4.554688 -0.222656 4.367188 -0.140625 4.140625 -0.078125 C 3.921875 -0.015625 3.691406 0.03125 3.453125 0.0625 C 3.222656 0.09375 3.023438 0.109375 2.859375 0.109375 C 2.128906 0.109375 1.566406 -0.09375 1.171875 -0.5 C 0.773438 -0.914062 0.578125 -1.425781 0.578125 -2.03125 L 0.578125 -4.421875 C 0.578125 -5.035156 0.773438 -5.546875 1.171875 -5.953125 C 1.578125 -6.367188 2.160156 -6.578125 2.921875 -6.578125 C 3.628906 -6.578125 4.160156 -6.390625 4.515625 -6.015625 C 4.867188 -5.640625 5.046875 -5.132812 5.046875 -4.5 C 5.046875 -3.90625 4.875 -3.4375 4.53125 -3.09375 C 4.1875 -2.757812 3.640625 -2.59375 2.890625 -2.59375 C 2.691406 -2.59375 2.476562 -2.601562 2.25 -2.625 C 2.019531 -2.65625 1.796875 -2.6875 1.578125 -2.71875 L 1.578125 -1.953125 C 1.578125 -1.597656 1.691406 -1.3125 1.921875 -1.09375 C 2.160156 -0.882812 2.507812 -0.78125 2.96875 -0.78125 Z M 4.0625 -4.5 C 4.0625 -4.914062 3.957031 -5.210938 3.75 -5.390625 C 3.550781 -5.578125 3.265625 -5.671875 2.890625 -5.671875 C 2.472656 -5.671875 2.148438 -5.566406 1.921875 -5.359375 C 1.691406 -5.148438 1.578125 -4.867188 1.578125 -4.515625 L 1.578125 -3.53125 C 1.816406 -3.5 2.066406 -3.476562 2.328125 -3.46875 C 2.597656 -3.457031 2.796875 -3.453125 2.921875 -3.453125 C 3.242188 -3.453125 3.484375 -3.5 3.640625 -3.59375 C 3.804688 -3.695312 3.914062 -3.828125 3.96875 -3.984375 C 4.03125 -4.148438 4.0625 -4.320312 4.0625 -4.5 Z M 4.0625 -4.5 "/></g></g><g style="fill:#093064;fill-opacity:1;"><g transform="translate(238.969698, 130.240658)"><path style="stroke:none" d="M 1.984375 -4.734375 L 1.984375 -0.390625 C 1.984375 -0.253906 1.9375 -0.132812 1.84375 -0.03125 C 1.75 0.0625 1.628906 0.109375 1.484375 0.109375 C 1.347656 0.109375 1.226562 0.0625 1.125 -0.03125 C 1.03125 -0.132812 0.984375 -0.253906 0.984375 -0.390625 L 0.984375 -4.734375 C 0.984375 -5.117188 0.914062 -5.414062 0.78125 -5.625 C 0.757812 -5.664062 0.738281 -5.703125 0.71875 -5.734375 C 0.695312 -5.773438 0.6875 -5.820312 0.6875 -5.875 C 0.6875 -6.019531 0.734375 -6.128906 0.828125 -6.203125 C 0.921875 -6.285156 1.03125 -6.328125 1.15625 -6.328125 C 1.257812 -6.328125 1.351562 -6.296875 1.4375 -6.234375 C 1.53125 -6.171875 1.609375 -6.085938 1.671875 -5.984375 C 1.941406 -6.148438 2.238281 -6.28125 2.5625 -6.375 C 2.894531 -6.476562 3.179688 -6.53125 3.421875 -6.53125 C 3.679688 -6.53125 3.859375 -6.484375 3.953125 -6.390625 C 4.046875 -6.296875 4.09375 -6.179688 4.09375 -6.046875 C 4.09375 -5.878906 4.039062 -5.75 3.9375 -5.65625 C 3.84375 -5.5625 3.726562 -5.519531 3.59375 -5.53125 C 3.320312 -5.539062 3.0625 -5.523438 2.8125 -5.484375 C 2.570312 -5.453125 2.285156 -5.316406 1.953125 -5.078125 C 1.960938 -5.015625 1.96875 -4.953125 1.96875 -4.890625 C 1.976562 -4.835938 1.984375 -4.785156 1.984375 -4.734375 Z M 1.984375 -4.734375 "/></g></g><g style="fill:#093064;fill-opacity:1;"><g transform="translate(243.286041, 130.240658)"><path style="stroke:none" d="M 2.96875 -0.78125 C 3.238281 -0.78125 3.472656 -0.8125 3.671875 -0.875 C 3.867188 -0.945312 4.082031 -1.035156 4.3125 -1.140625 C 4.320312 -1.148438 4.34375 -1.15625 4.375 -1.15625 C 4.40625 -1.164062 4.441406 -1.171875 4.484375 -1.171875 C 4.609375 -1.171875 4.710938 -1.125 4.796875 -1.03125 C 4.890625 -0.945312 4.9375 -0.847656 4.9375 -0.734375 C 4.9375 -0.578125 4.859375 -0.441406 4.703125 -0.328125 C 4.554688 -0.222656 4.367188 -0.140625 4.140625 -0.078125 C 3.921875 -0.015625 3.691406 0.03125 3.453125 0.0625 C 3.222656 0.09375 3.023438 0.109375 2.859375 0.109375 C 2.128906 0.109375 1.566406 -0.09375 1.171875 -0.5 C 0.773438 -0.914062 0.578125 -1.425781 0.578125 -2.03125 L 0.578125 -4.421875 C 0.578125 -5.035156 0.773438 -5.546875 1.171875 -5.953125 C 1.578125 -6.367188 2.160156 -6.578125 2.921875 -6.578125 C 3.628906 -6.578125 4.160156 -6.390625 4.515625 -6.015625 C 4.867188 -5.640625 5.046875 -5.132812 5.046875 -4.5 C 5.046875 -3.90625 4.875 -3.4375 4.53125 -3.09375 C 4.1875 -2.757812 3.640625 -2.59375 2.890625 -2.59375 C 2.691406 -2.59375 2.476562 -2.601562 2.25 -2.625 C 2.019531 -2.65625 1.796875 -2.6875 1.578125 -2.71875 L 1.578125 -1.953125 C 1.578125 -1.597656 1.691406 -1.3125 1.921875 -1.09375 C 2.160156 -0.882812 2.507812 -0.78125 2.96875 -0.78125 Z M 4.0625 -4.5 C 4.0625 -4.914062 3.957031 -5.210938 3.75 -5.390625 C 3.550781 -5.578125 3.265625 -5.671875 2.890625 -5.671875 C 2.472656 -5.671875 2.148438 -5.566406 1.921875 -5.359375 C 1.691406 -5.148438 1.578125 -4.867188 1.578125 -4.515625 L 1.578125 -3.53125 C 1.816406 -3.5 2.066406 -3.476562 2.328125 -3.46875 C 2.597656 -3.457031 2.796875 -3.453125 2.921875 -3.453125 C 3.242188 -3.453125 3.484375 -3.5 3.640625 -3.59375 C 3.804688 -3.695312 3.914062 -3.828125 3.96875 -3.984375 C 4.03125 -4.148438 4.0625 -4.320312 4.0625 -4.5 Z M 4.0625 -4.5 "/></g></g></g></svg>