<svg xmlns="http://www.w3.org/2000/svg" xmlns:xlink="http://www.w3.org/1999/xlink" width="200" zoomAndPan="magnify" viewBox="0 0 150 149.999998" height="200" preserveAspectRatio="xMidYMid meet" version="1.2"><defs><clipPath id="c1acae2f45"><path d="M 9.3125 8.058594 L 140.5625 8.058594 L 140.5625 142 L 9.3125 142 Z M 9.3125 8.058594 "/></clipPath></defs><g id="efa178e8ff"><g clip-rule="nonzero" clip-path="url(#c1acae2f45)"><path style=" stroke:none;fill-rule:nonzero;fill:#15b0f8;fill-opacity:1;" d="M 74.9375 8.070312 C 38.707031 8.070312 9.335938 37.441406 9.335938 73.671875 L 9.335938 130.210938 C 9.335938 136.625 14.539062 141.832031 20.957031 141.832031 C 47.8125 141.832031 69.582031 120.0625 69.582031 93.207031 L 69.582031 90.1875 L 64.503906 92.371094 C 62.511719 93.230469 60.285156 91.765625 60.285156 89.59375 L 60.285156 88.804688 C 60.285156 86.023438 68.261719 81.019531 68.261719 78.605469 L 68.261719 60.804688 C 68.261719 60.804688 39.882812 72.671875 36.917969 71.558594 C 33.949219 70.445312 32.839844 64.882812 38.402344 61.542969 C 43.964844 58.207031 68.261719 40.402344 68.261719 40.402344 C 66.964844 17.777344 74.941406 18.519531 74.941406 18.519531 C 74.941406 18.519531 82.914062 17.777344 81.617188 40.402344 C 81.617188 40.402344 105.910156 58.207031 111.472656 61.542969 C 117.039062 64.882812 115.925781 70.445312 112.957031 71.558594 C 109.992188 72.671875 81.617188 60.804688 81.617188 60.804688 L 81.617188 78.605469 C 81.617188 81.019531 89.59375 86.023438 89.59375 88.804688 L 89.59375 89.59375 C 89.59375 91.765625 87.367188 93.226562 85.371094 92.371094 L 80.296875 90.1875 L 80.296875 93.207031 C 80.296875 120.0625 102.066406 141.832031 128.921875 141.832031 C 135.335938 141.832031 140.542969 136.628906 140.542969 130.210938 L 140.542969 73.671875 C 140.542969 37.441406 111.171875 8.070312 74.941406 8.070312 Z M 74.9375 8.070312 "/></g></g></svg>